<?xml version="1.0" encoding="utf-8"?>
<!-- Generator: Adobe Illustrator 23.1.0, SVG Export Plug-In . SVG Version: 6.00 Build 0)  -->
<svg version="1.1" id="Layer_1" xmlns="http://www.w3.org/2000/svg" xmlns:xlink="http://www.w3.org/1999/xlink" x="0px" y="0px"
	 viewBox="0 0 512 512" style="enable-background:new 0 0 512 512;" xml:space="preserve">
<style type="text/css">
	.st0{fill:#fff;}
</style>
<path class="st0" d="M267.2,504h-5.3c-21.9,0-39.6-17.7-39.6-39.6V47.6C222.3,25.8,240,8,261.8,8h5.3c21.9,0,39.6,17.7,39.6,39.6
	v416.8C306.7,486.2,289,504,267.2,504z"/>
<path class="st0" d="M294.3,486.6l-3.5,4c-14.5,16.4-39.5,17.9-55.8,3.4l-159-140.8c-16.4-14.5-17.9-39.5-3.4-55.8l3.5-4
	c14.5-16.4,39.5-17.9,55.8-3.4l159,140.8C307.2,445.3,308.8,470.3,294.3,486.6z"/>
<path class="st0" d="M233.7,486.6l3.5,4c14.5,16.4,39.5,17.9,55.8,3.4l159-140.8c16.4-14.5,17.9-39.5,3.4-55.8l-3.5-4
	c-14.5-16.4-39.5-17.9-55.8-3.4l-159,140.8C220.8,445.3,219.2,470.3,233.7,486.6z"/>
</svg>
